<svg xmlns="http://www.w3.org/2000/svg" viewBox="0 0 512 512"><rect width="512" height="512" rx="112" fill="#04563E"/><g transform="translate(148 60) scale(0.186)"><rect y="1244" width="190" height="863" fill="#FDF5E6"/><path d="M600 834C373.563 834 190 1017.56 190 1244C190 1470.44 373.563 1654 600 1654C826.437 1654 1010 1470.44 1010 1244C1010 1037.94 857.995 867.392 660 838.358V646.965C963.199 677.068 1200 932.879 1200 1244C1200 1575.37 931.371 1844 600 1844C268.629 1844 0 1575.37 0 1244C0 912.629 268.629 644 600 644V834Z" fill="#FDF5E6"/><path d="M600 1261H630C646.569 1261 660 1247.570 660 1231V1037.48C749.543 1063.45 815 1146.08 815 1244C815 1362.74 718.741 1459 600 1459C481.259 1459 385 1362.74 385 1244C385 1125.26 481.259 1029 600 1029V1261Z" fill="#E07A36"/><path d="M928.577 214.747C855.919 171.672 705.762 144.969 660 199.944V598.249C721.636 499.469 815.246 456.939 947.82 448.989C1152.67 424.685 1178.69 355.949 1221.03 296.181C1133.35 313.649 1017.19 265.916 928.577 214.747Z" fill="#E07A36"/><path d="M600 152H540V1261H600V152Z" fill="#FDF5E6"/><path d="M570 0C619.706 0 660 40.2944 660 90C660 139.706 619.706 180 570 180C520.294 180 480 139.706 480 90C480 40.2944 520.294 0 570 0Z" fill="#E07A36"/></g></svg>
