<svg width="2134" height="3935" viewBox="0 0 2134 3935" fill="none" xmlns="http://www.w3.org/2000/svg">
<path d="M905.378 1432.24C482.24 1508.28 161.163 1878.35 161.163 2323.41V3935H0V2324H0.000976562C0.000942461 2323.9 0 2323.79 0 2323.69C0.000566283 1789.39 392.815 1346.84 905.378 1269.13V1432.24ZM1142.39 1259.69C1696.04 1298.58 2133.12 1760.09 2133.12 2323.69C2133.12 2912.79 1655.6 3390.35 1066.56 3390.35C946.315 3390.35 830.719 3370.44 722.884 3333.76V3161.37C828.854 3204.89 944.901 3228.88 1066.55 3228.88C1566.59 3228.88 1971.94 2823.49 1971.94 2323.41C1971.94 1848.87 1606.94 1459.6 1142.39 1421.07V1259.69Z" fill="#F2C94C"></path>
<path d="M905.632 1673.8C614.466 1746.01 398.643 2009.16 398.643 2322.73C398.643 2322.8 398.644 2322.87 398.644 2322.93H398.643V3935H237.475V2322.89C237.511 1919.89 524.761 1584.01 905.632 1508.89V1673.8ZM1142.64 1496.6C1565.35 1534.81 1896.57 1890.2 1896.57 2322.96C1896.57 2781.23 1525.17 3152.73 1067.02 3152.73C944.435 3152.73 828.062 3126.13 723.351 3078.39V2896.25C823.772 2956.59 941.345 2991.28 1067.02 2991.28C1436.15 2991.28 1735.4 2691.96 1735.4 2322.73C1735.4 1979.07 1476.17 1695.98 1142.64 1658.41V1496.6Z" fill="#E06F1E"></path>
<path d="M1066.57 1891.86C828.414 1891.95 635.383 2085.02 635.383 2323.18C635.383 2561.39 828.511 2754.5 1066.75 2754.5C1304.98 2754.5 1498.11 2561.39 1498.11 2323.18C1498.11 2110.78 1344.57 1934.23 1142.41 1898.47V1735.74C1434.05 1772.78 1659.54 2021.79 1659.54 2323.46C1659.54 2650.68 1394.25 2915.94 1067 2915.94C903.111 2915.94 754.761 2849.4 647.492 2741.87V3905C647.492 3921.57 634.061 3935 617.492 3935H474.473V2323.46C474.473 1996.39 739.522 1731.22 1066.57 1730.99V1891.86Z" fill="#05805B"></path>
<path d="M1066.31 2322.81H1112.16C1128.72 2322.81 1142.16 2309.38 1142.16 2292.81V1975.48C1302.11 2010.19 1421.92 2152.57 1421.92 2322.94C1421.92 2519.3 1262.75 2678.49 1066.4 2678.49C870.054 2678.49 710.883 2519.3 710.883 2322.94C710.883 2126.6 870.006 1967.44 1066.31 1967.39V2322.81Z" fill="#05805B"></path>
<rect x="981.158" y="308.25" width="85.3247" height="2014.8" fill="#05805B"></rect>
<path d="M1612.93 392.183C1483.72 315.591 1216.69 268.11 1135.31 365.863V1074.1C1244.92 898.457 1411.39 822.832 1647.15 808.696C2011.45 765.48 2057.71 643.26 2133 536.984C1977.09 568.044 1770.51 483.169 1612.93 392.183Z" fill="#EE5D1C"></path>
<path d="M1025.14 0C1111.85 0.000173179 1182.14 70.2914 1182.14 157C1182.14 243.708 1111.85 314 1025.14 314C938.432 314 868.141 243.708 868.141 157C868.141 70.2913 938.432 0 1025.14 0ZM1025.12 84.8584C985.307 84.8586 953.034 117.134 953.034 156.948C953.034 196.762 985.307 229.037 1025.12 229.037C1064.93 229.037 1097.2 196.762 1097.2 156.948C1097.2 117.134 1064.93 84.8584 1025.12 84.8584Z" fill="#05805B"></path>
</svg>